<?xml version="1.0" encoding="UTF-8"?>
<svg xmlns="http://www.w3.org/2000/svg" version="1.1"
     xml:space="preserve"
     width="59.2291mm"
     height="28.7854mm"
     style="shape-rendering:geometricPrecision; text-rendering:geometricPrecision; image-rendering:optimizeQuality; fill-rule:evenodd; clip-rule:evenodd"
     viewBox="0 -140 1968.08 956.49"
>
  <defs>
    <style type="text/css">
      <![CDATA[
    .fil0 {fill:#434242}
    .fil1 {fill:#434242;fill-rule:nonzero}
    .fil2 {fill:#235bcc;stroke:#ffffff;stroke-width:70;stroke-linecap:round;stroke-linejoin:round;paint-order:stroke fill}
   ]]>
    </style>
  </defs>
  <g id="logo">
    <g id="tod_registrar">
      <g id="sign" aria-label="R">
        <path class="fil0" d="M735.9 810.96c7.17,3.81 37.52,2.85 48,2.72l123.13 -0.47c-0.88,-3.6 -0.81,-1.05 -5.69,-7.65l-66.55 -85.27c-7.91,-10.24 -16.33,-20.63 -23.94,-30.74l-18.67 -24.21c-3.19,-4.34 -6.24,-8 -9.58,-12.12 -1.09,-1.35 -1.17,-1.58 -2.14,-2.88l-8.12 -9.15c-2.79,-2.6 -6.07,-7.52 -9,-11.26 -3.33,-4.24 -6.04,-7.74 -9.45,-12.24 -3.32,-4.38 -15.73,-21.62 -19.48,-23.79 -0.1,-0.47 -31.26,-43.15 -35.88,-45.81l-28.98 -38.03c-0.98,-0.91 -0.44,-0.46 -1.61,-1.26 -1.48,-5.52 -27.33,-32.49 -28.42,-38.54 6.69,-0.59 30.78,-5.44 34.15,-8.16 28.84,-6.6 65.83,-37.24 84.17,-59.81 20.67,-25.44 38.24,-57.56 49.56,-94.12 19.25,-62.18 20.42,-152.89 -11.61,-213.67l-9.6 -17.13c-1.65,-2.5 -2.01,-3.66 -4.34,-5.26 -0.56,-2.51 -2.6,-4.72 -4.66,-7.47 -3.88,-5.19 -13.8,-17.62 -18.26,-19.73 -3.79,-6.72 -38.39,-29.87 -52.03,-33.03 -6.1,-5.73 -44.39,-11.08 -56.66,-11.37 -22.47,-0.53 -46.28,-0.61 -68.74,-0.16l-197.88 -0.13c-41.71,0.46 -83.58,-0.16 -125.32,0.03 -43.75,0.2 -70.36,1.58 -106.18,19.15 -28.93,14.2 -54.3,34.22 -71.04,54.56 -4.75,5.77 -8.97,10.83 -13.62,17.25 -10.19,14.05 -30.39,44.87 -34.52,60.57 -1.49,2.38 -0.56,0.98 0.1,1.95 26.69,1.1 56.34,0.02 83.34,-0.07l406.05 -0.32 0.19 0 0.02 0 0.2 0.01 0.2 0 0.2 0 0.2 0.01 0.05 0 0.15 0 0.2 0 0.2 0 0.2 0 0.11 0 0.09 0 0.2 0 0.2 0 0.2 0 0.18 0 0.03 0 0.2 0 0.2 0 0.2 0 0.2 0 0.04 0 0.17 0 0.2 0 0.2 0 0.2 0 0.1 0 0.1 0 0.2 0 0.2 0 0.2 0 0.16 0 0.03 0 0.2 0 0.2 0 0.2 0 0.2 0 0.03 0 0.17 0 0.19 0 0.2 0 0.2 0 0.09 0 0.1 0 0.2 0 0.19 -0 0.19 0 0.15 0 0.04 0 0.19 0 0.19 -0 0.19 0 0.38 -0 0.19 -0 0.19 0 0.19 -0 0.08 0 0.11 -0 0.19 0 0.19 -0 0.19 -0 0.14 0 0.05 0 0.19 -0 0.18 -0 0.19 -0 0.18 -0 0.01 0 0.18 -0 0.18 -0.01 0.18 0 0.18 -0.01 0.06 0 0.12 -0 0.18 -0 0.18 -0.01 0.02 0 0.66 0c21.42,-0.04 60.95,-2.27 78.18,5.67 17.61,8.12 32.39,24.83 33.69,50.27 0.12,24.51 2.47,49.52 -6.79,70.12 -7.74,17.21 -20.26,30.56 -37.4,38.36 -22.28,10.13 -41.04,8.17 -66.85,8.19l-66.01 -0.1c-7.66,-0.13 -7.35,-0.6 -8.86,1.8 -3.04,1.79 -34.19,71.96 -35.34,74.63 -8.17,19.03 -29.06,60.7 -34.74,76.27 4.33,1.66 26.24,-1.78 46.29,10.59 20.72,12.78 25.07,24.78 30.12,28.52 1.13,3.18 6.43,8.73 8.73,11.78l61.59 77.87c2.71,5.66 29.85,39.39 35.86,47.44l34.01 43.66c1.33,1.69 0.94,1.86 2.57,2.31 1.32,3.83 31.97,42.9 36.1,46.88l16.19 20.19c2.76,3.09 15.22,15.49 18.71,16.92 3.85,5.24 16.46,12.26 24.14,16 9.43,4.58 19.29,8.24 30.2,10.31zm-735.9 2.36c18.83,1.29 43.23,-0.08 62.72,-0.07 20.07,0.01 40.45,0.89 59.18,-3.57 32.77,-7.79 60.07,-30.72 74.68,-51.61 12.07,-17.26 31.54,-63.47 41.43,-85.66l59.34 -132.2c6.52,-14.64 13.08,-29.26 19.88,-43.68 6.83,-14.47 12.87,-29.27 19.66,-43.91 6.85,-14.77 13.03,-28.98 19.72,-43.83 13.15,-29.19 26.24,-58.69 39.58,-87.54l39.65 -88.51c-20.67,-0.61 -42.12,-0.14 -62.86,-0.09 -21.76,0.06 -37.5,-0.15 -57.35,5.56 -30.82,8.87 -56.16,27.06 -75.82,50.59 -16.57,19.84 -30.48,57.02 -42.98,84.1 -13.63,29.53 -26.02,60.06 -39.69,88.28 -12.65,26.14 -26.9,60.66 -39.31,87.81 -6.77,14.82 -12.96,29.05 -19.71,43.85 -6.55,14.36 -12.62,29.89 -19.57,43.99 -14.03,28.47 -25.54,58.86 -39.23,87.91 -7.16,15.21 -12.62,29.65 -19.67,43.9l-19.65 44.66z"/>
      </g>
      <g id="name" aria-label="TODO registrar">
        <path class="fil1" d="M1005.14 813.95l0 -118.42 49.9 0c5.98,0 11.87,0.62 17.68,1.86 5.81,1.24 11,3.38 15.56,6.43 4.57,3.04 8.26,7.13 11.08,12.26 2.82,5.13 4.23,11.59 4.23,19.37 0,4.96 -0.56,9.33 -1.69,13.11 -1.13,3.78 -2.71,7.1 -4.74,9.98 -2.03,2.87 -4.43,5.33 -7.19,7.36 -2.76,2.03 -5.78,3.72 -9.05,5.07l32.65 42.97 -35.35 0 -28.25 -38.57 -13.53 0 0 38.57 -31.3 0zm31.3 -63.94l19.96 0c4.51,0 8.15,-1.13 10.92,-3.38 2.76,-2.26 4.14,-5.7 4.14,-10.32 0,-4.63 -1.38,-8.06 -4.14,-10.32 -2.76,-2.26 -6.4,-3.38 -10.92,-3.38l-19.96 0 0 27.4zm174.24 -54.47l0 27.07 -53.96 0 0 18.1 48.89 0 0 26.9 -48.89 0 0 19.29 54.98 0 0 27.06 -86.28 0 0 -118.42 85.26 0zm12.01 59.21c0,-11.06 1.86,-20.47 5.58,-28.25 3.72,-7.78 8.63,-14.16 14.72,-19.12 6.09,-4.96 13.06,-8.6 20.89,-10.91 7.84,-2.31 15.87,-3.47 24.1,-3.47 6.43,0 12.75,0.65 18.95,1.95 6.2,1.29 12.12,3.13 17.76,5.5l0 29.6c-4.4,-3.05 -9.45,-5.39 -15.14,-7.02 -5.7,-1.63 -11.53,-2.45 -17.51,-2.45 -4.74,0 -9.36,0.65 -13.87,1.94 -4.51,1.3 -8.49,3.3 -11.93,6 -3.44,2.71 -6.2,6.23 -8.29,10.57 -2.09,4.34 -3.13,9.56 -3.13,15.65 0,7.33 1.19,13.25 3.55,17.76 2.37,4.51 5.33,8.04 8.88,10.57 3.55,2.54 7.36,4.26 11.42,5.16 4.06,0.9 7.78,1.35 11.16,1.35 3.16,0 5.86,-0.28 8.12,-0.84l0 -39.93 29.6 0 0 59.72c-6.09,2.6 -12.46,4.57 -19.11,5.92 -6.66,1.35 -13.36,2.03 -20.13,2.03 -8.46,0 -16.63,-1.21 -24.53,-3.64 -7.89,-2.42 -14.89,-6.14 -20.97,-11.16 -6.09,-5.02 -10.97,-11.42 -14.64,-19.2 -3.66,-7.78 -5.5,-17.03 -5.5,-27.74zm155.3 -59.21l0 118.42 -31.3 0 0 -118.42 31.3 0zm18.1 32.31c0,-5.86 1.19,-11 3.56,-15.39 2.37,-4.4 5.58,-8.03 9.64,-10.91 4.06,-2.87 8.8,-5.02 14.21,-6.43 5.41,-1.41 11.16,-2.11 17.26,-2.11 7.44,0 14.63,0.85 21.57,2.54 6.93,1.69 13,4 18.19,6.93l0 28.76c-5.08,-3.83 -10.83,-6.68 -17.26,-8.54 -6.43,-1.86 -13.08,-2.73 -19.96,-2.62 -5.75,0.11 -9.7,0.84 -11.84,2.2 -2.14,1.36 -3.21,3.16 -3.21,5.42 0,2.59 1.53,4.71 4.57,6.34 3.04,1.63 6.85,3.24 11.42,4.82 4.57,1.58 9.5,3.3 14.8,5.16 5.3,1.86 10.23,4.31 14.8,7.36 4.57,3.04 8.37,6.88 11.42,11.51 3.04,4.62 4.57,10.43 4.57,17.42 0,6.99 -1.24,12.83 -3.72,17.51 -2.48,4.68 -5.89,8.4 -10.23,11.16 -4.34,2.76 -9.39,4.71 -15.14,5.84 -5.75,1.13 -11.84,1.69 -18.27,1.69 -8.57,0 -16.72,-0.93 -24.45,-2.79 -7.73,-1.86 -14.74,-4.54 -21.06,-8.03l0 -29.6c7.1,4.85 14.38,8.29 21.82,10.32 7.45,2.03 14.55,3.04 21.32,3.04 6.2,0 10.69,-0.59 13.45,-1.77 2.76,-1.19 4.15,-3.24 4.15,-6.18 0,-2.82 -1.52,-5.13 -4.57,-6.93 -3.05,-1.8 -6.85,-3.53 -11.42,-5.16 -4.57,-1.63 -9.5,-3.38 -14.8,-5.24 -5.3,-1.86 -10.23,-4.31 -14.8,-7.36 -4.57,-3.04 -8.37,-6.85 -11.42,-11.42 -3.05,-4.57 -4.57,-10.4 -4.57,-17.51zm196.24 -32.31l0 27.91 -33.33 0 0 90.5 -31.29 0 0 -90.5 -33.5 0 0 -27.91 98.12 0zm13.36 118.42l0 -118.42 49.9 0c5.98,0 11.87,0.62 17.68,1.86 5.81,1.24 11,3.38 15.56,6.43 4.57,3.04 8.26,7.13 11.08,12.26 2.82,5.13 4.23,11.59 4.23,19.37 0,4.96 -0.56,9.33 -1.69,13.11 -1.13,3.78 -2.71,7.1 -4.74,9.98 -2.03,2.87 -4.43,5.33 -7.19,7.36 -2.76,2.03 -5.78,3.72 -9.05,5.07l32.65 42.97 -35.35 0 -28.25 -38.57 -13.53 0 0 38.57 -31.29 0zm31.29 -63.94l19.96 0c4.51,0 8.15,-1.13 10.91,-3.38 2.76,-2.26 4.14,-5.7 4.14,-10.32 0,-4.63 -1.38,-8.06 -4.14,-10.32 -2.76,-2.26 -6.4,-3.38 -10.91,-3.38l-19.96 0 0 27.4zm77.98 63.94l46.52 -118.42 33.83 0 46.52 118.42 -32.14 0 -6.77 -18.61 -49.06 0 -6.77 18.61 -32.14 0zm48.21 -43.98l30.45 0 -12.18 -34.17c-0.56,-1.47 -1.07,-3.05 -1.52,-4.74 -0.46,-1.69 -0.96,-4.12 -1.53,-7.27 -0.56,3.16 -1.07,5.58 -1.52,7.27 -0.45,1.69 -0.96,3.27 -1.53,4.74l-12.18 34.17zm90 43.98l0 -118.42 49.9 0c5.98,0 11.87,0.62 17.68,1.86 5.81,1.24 11,3.38 15.56,6.43 4.57,3.04 8.26,7.13 11.08,12.26 2.82,5.13 4.23,11.59 4.23,19.37 0,4.96 -0.56,9.33 -1.69,13.11 -1.13,3.78 -2.71,7.1 -4.74,9.98 -2.03,2.87 -4.43,5.33 -7.19,7.36 -2.76,2.03 -5.78,3.72 -9.05,5.07l32.65 42.97 -35.35 0 -28.25 -38.57 -13.53 0 0 38.57 -31.29 0zm31.29 -63.94l19.96 0c4.51,0 8.15,-1.13 10.91,-3.38 2.76,-2.26 4.14,-5.7 4.14,-10.32 0,-4.63 -1.38,-8.06 -4.14,-10.32 -2.76,-2.26 -6.4,-3.38 -10.91,-3.38l-19.96 0 0 27.4z"/>
        <path class="fil1" d="M921.67 69.53l0 -69.53 236.62 0.48 0 69.05 -83.47 0 0 556.86 -69.69 0 0 -556.86 -83.47 0zm385.18 0l-23.28 0c-23.12,0 -34.68,11.72 -34.68,34.84l0 417.65c0,23.12 11.56,34.68 34.68,34.68l23.28 0c23.12,0 34.68,-11.56 34.68,-34.68l0 -417.65c0,-23.12 -11.56,-34.84 -34.68,-34.84zm104.37 429.21c0,85.05 -30.89,127.65 -92.81,127.65l-46.41 0c-61.93,0 -92.81,-42.61 -92.81,-127.65l0 -371.08c0,-85.21 30.88,-127.65 92.81,-127.65l46.41 0c61.92,0 92.81,42.44 92.81,127.65l0 371.08zm174.06 57.97c23.12,0 34.68,-11.56 34.68,-34.68l0 -417.65c0,-23.12 -11.4,-34.84 -34.21,-34.84l-58.44 0 0 487.17 57.97 0zm104.37 -57.97c0,85.05 -30.89,127.65 -92.81,127.65l-139.22 0 0 -626.39 139.22 0c61.92,0 92.81,42.44 92.81,127.65l0 371.08zm174.06 -429.21l-23.28 0c-23.12,0 -34.68,11.72 -34.68,34.84l0 417.65c0,23.12 11.56,34.68 34.68,34.68l23.28 0c23.12,0 34.68,-11.56 34.68,-34.68l0 -417.65c0,-23.12 -11.56,-34.84 -34.68,-34.84zm104.37 429.21c0,85.05 -30.89,127.65 -92.81,127.65l-46.41 0c-61.93,0 -92.81,-42.61 -92.81,-127.65l0 -371.08c0,-85.21 30.88,-127.65 92.81,-127.65l46.41 0c61.92,0 92.81,42.44 92.81,127.65l0 371.08z"/>
      </g>
    </g>
    <g id="action-label" aria-label="action">
      <path class="fil2" d="m 1346.8262,44.984909 q -17.6319,0 -27.5147,-9.545898 -9.8828,-9.658204 -9.8828,-27.0654301 0,-18.8671879 12.2412,-28.7499999 12.3535,-9.882813 35.7129,-10.107422 l 26.167,-0.449219 v -6.176758 q 0,-11.904296 -4.1553,-17.631835 -4.1552,-5.839844 -13.5888,-5.839844 -8.7598,0 -12.9151,4.042969 -4.0429,3.930664 -5.0537,13.139648 l -32.9053,-1.572266 q 3.0323,-17.74414 16.1719,-26.84082 13.252,-9.208984 36.0498,-9.208984 23.0225,0 35.4883,11.342773 12.4658,11.342774 12.4658,32.231445 V 6.8013153 q 0,10.2197267 2.2461,14.1503907 2.3584,3.818359 7.749,3.818359 3.5938,0 6.9629,-0.673828 V 41.16655 q -2.8076,0.673828 -5.0537,1.235351 -2.2461,0.561524 -4.4922,0.898438 -2.2461,0.336914 -4.8291,0.561523 -2.4707,0.22461 -5.8398,0.22461 -11.9043,0 -17.6318,-5.839844 -5.6153,-5.839844 -6.7383,-17.182617 h -0.6739 q -13.2519,23.920898 -39.9804,23.920898 z m 36.7236,-58.510742 -16.1719,0.224609 q -11.0058,0.449219 -15.6103,2.470703 -4.6045,1.9091801 -7.0752,5.9521488 -2.3584,4.04296876 -2.3584,10.78125 0,8.6474612 3.9306,12.9150392 4.043,4.155273 10.669,4.155273 7.4121,0 13.4766,-4.042968 6.1767,-4.042969 9.6582,-11.1181645 3.4814,-7.1875 3.4814,-15.1611328 z m 113.7647,58.510742 q -27.627,0 -42.6758,-16.396484 -15.0489,-16.508789 -15.0489,-45.932618 0,-30.097656 15.1612,-46.831054 15.1611,-16.845703 43.0127,-16.845703 21.4502,0 35.4883,10.78125 14.038,10.78125 17.6318,29.760742 l -31.7822,1.572265 q -1.3477,-9.321289 -6.7383,-14.824218 -5.3906,-5.615235 -15.2735,-5.615235 -24.3701,0 -24.3701,40.766602 0,42.001953 24.8194,42.001953 8.9843,0 15.0488,-5.615234 6.0644,-5.727539 7.5244,-16.95800813 l 31.6699,1.45996093 q -1.6845,12.4658202 -8.9843,22.2363282 -7.1875,9.770508 -18.9795,15.161133 -11.792,5.27832 -26.5039,5.27832 z m 108.374,-0.224609 q -13.9258,0 -21.4502,-7.524414 -7.5244,-7.636719 -7.5244,-23.022461 v -71.650391 h -15.3858 v -21.337891 h 16.958 l 9.8828,-28.525393 h 19.7657 v 28.525393 h 23.0224 v 21.337891 h -23.0224 V 5.6782684 q 0,8.8720706 3.3691,13.1396486 3.3692,4.155273 10.4443,4.155273 3.7061,0 10.5567,-1.572265 V 40.94194 q -11.6797,3.81836 -26.6162,3.81836 z m 45.4834,-145.43457 v -23.24707 h 31.5576 v 23.24707 z m 0,143.413085 V -78.774857 h 31.5576 V 42.738815 Z m 179.3506,-60.86914 q 0,29.536132 -16.3965,46.381836 -16.3965,16.733398 -45.3711,16.733398 -28.4131,0 -44.585,-16.845703 -16.1719,-16.845703 -16.1719,-46.269531 0,-29.311524 16.1719,-46.044922 16.1719,-16.845703 45.2588,-16.845703 29.7608,0 45.3711,16.284179 15.7227,16.171875 15.7227,46.606446 z m -33.0176,0 q 0,-21.674805 -7.0752,-31.445313 -7.0752,-9.770508 -20.5518,-9.770508 -28.75,0 -28.75,41.215821 0,20.3271481 6.9629,30.996093 7.0752,10.556641 20.3272,10.556641 29.0869,0 29.0869,-41.552734 z m 136.7871,60.86914 V -25.43013 q 0,-32.006836 -21.6748,-32.006836 -11.4551,0 -18.5303,9.882813 -6.9629,9.770507 -6.9629,25.15625 v 65.136718 h -31.5576 v -94.335937 q 0,-9.770508 -0.3369,-15.947266 -0.2246,-6.289062 -0.5615,-11.230469 h 30.0976 q 0.3369,2.133789 0.8985,11.455079 0.5615,9.208984 0.5615,12.690429 h 0.4492 q 6.4014,-13.925781 16.0596,-20.214844 9.6582,-6.289062 23.0224,-6.289062 19.3164,0 29.6485,11.904297 10.332,11.904297 10.332,34.814453 v 77.15332 z"/>
    </g>
  </g>
</svg>


